# xmcd CD database file
#
# Track frame offsets:
#	150
#	19990
#	36100
#	65312
#	84967
#	102502
#	115980
#	133480
#	151870
#	164462
#	179777
#
# Disc length: 2606 seconds
#
# Revision: 0
# Processed by: cddbd v1.5.1PL0 Copyright (c) Steve Scherf et al.
# Submitted via: CDex 1.51
#
DISCID=960a2c0b
DTITLE=ザ・フライング・エレファンツ - SECOND FLIGHT
DYEAR=1992
DGENRE=Pop
TTITLE0=The Lady I Can't Forget
TTITLE1=Never,Happiness Beyond The Nature
TTITLE2=You Never Give Me "Golden Slumbers"
TTITLE3=I Can't Never Say
TTITLE4=She Has Flown
TTITLE5=Pitiful People
TTITLE6=Tell Me
TTITLE7=Are You From The Universe?
TTITLE8=Rhythm Of Love
TTITLE9=You Are Not Alone
TTITLE10=My Heart To You
EXTD=YEAR: 1992
EXTT0=
EXTT1=
EXTT2=
EXTT3=
EXTT4=
EXTT5=
EXTT6=
EXTT7=
EXTT8=
EXTT9=
EXTT10=
PLAYORDER=
